<svg xmlns="http://www.w3.org/2000/svg" xmlns:xlink="http://www.w3.org/1999/xlink" viewBox="64 64 896 896" width="14" height="14" style="border-color: rgba(0,0,0,0);border-width: bpx;border-style: undefined" filter="none">
    
    <g>
    <path d="M832 64H192c-17.7 0-32 14.3-32 32v224h704V96c0-17.7-14.3-32-32-32zM288 232c-22.1 0-40-17.9-40-40s17.9-40 40-40 40 17.9 40 40-17.9 40-40 40zM160 928c0 17.7 14.3 32 32 32h640c17.7 0 32-14.3 32-32V704H160v224zm128-136c22.1 0 40 17.9 40 40s-17.9 40-40 40-40-17.9-40-40 17.9-40 40-40zM160 640h704V384H160v256zm128-168c22.1 0 40 17.9 40 40s-17.9 40-40 40-40-17.9-40-40 17.9-40 40-40z" fill="rgba(255,255,255,1)"></path>
    </g>
  </svg>