<svg xmlns="http://www.w3.org/2000/svg" xmlns:xlink="http://www.w3.org/1999/xlink" viewBox="64 64 896 896" width="14" height="14" style="border-color: rgba(0,0,0,0);border-width: bpx;border-style: undefined" filter="none">
    
    <g>
    <path d="M112 880c0 17.7 14.3 32 32 32h736c17.7 0 32-14.3 32-32V460H112v420zm768-696H712v-64c0-4.4-3.6-8-8-8h-56c-4.4 0-8 3.6-8 8v64H384v-64c0-4.4-3.6-8-8-8h-56c-4.4 0-8 3.6-8 8v64H144c-17.7 0-32 14.3-32 32v176h800V216c0-17.7-14.3-32-32-32z" fill="rgba(255,255,255,1)"></path>
    </g>
  </svg>