<svg xmlns="http://www.w3.org/2000/svg" xmlns:xlink="http://www.w3.org/1999/xlink" viewBox="64 64 896 896" width="14" height="14" style="border-color: rgba(0,0,0,0);border-width: bpx;border-style: undefined" filter="none">
    
    <g>
    <path d="M928 160H96c-17.7 0-32 14.3-32 32v160h896V192c0-17.7-14.3-32-32-32zM64 832c0 17.7 14.3 32 32 32h832c17.7 0 32-14.3 32-32V440H64v392zm579-184c0-4.4 3.6-8 8-8h165c4.4 0 8 3.6 8 8v72c0 4.4-3.6 8-8 8H651c-4.4 0-8-3.6-8-8v-72z" fill="rgba(255,255,255,1)"></path>
    </g>
  </svg>